# xmcd CD database file
#
# Track frame offsets:
#	150
#	10630
#	24225
#	34700
#
# Disc length: 640 seconds
#
# Revision: 0
# Processed by: cddbd v1.5PL3 Copyright (c) Steve Scherf et al.
# Submitted via: CDex 1.50beta10
#
DISCID=1c027e04
DTITLE=貧ちゃん - NHKアニメーション おじゃる丸 エンディングテーマソング
DYEAR=2003
DGENRE=Anime
TTITLE0=この町いつも 〜貧ちゃんのうた〜
TTITLE1=ちっちゃいものクラブ合唱団/われら月光町ちっちゃいものクラブ
TTITLE2=この町いつも 〜貧ちゃんのうた〜 【カラオケ】
TTITLE3=われら月光町ちっちゃいものクラブ 【カラオケ】
EXTD=YEAR: 2003
EXTT0=
EXTT1=
EXTT2=
EXTT3=
PLAYORDER=
